<svg xmlns="http://www.w3.org/2000/svg" width="1024" height="1024" viewBox="0 0 1024 1024">
  <rect width="1024" height="1024" fill="#000105"/>
  <rect x="176" y="176" width="672" height="672" rx="184" fill="#00b3b5"/>
  <rect x="226" y="226" width="572" height="572" rx="142" fill="#000105"/>
  <path
    d="M512 770 438 748 377 699 348 627 356 552 392 489 454 444 438 376 465 308 536 236 553 326 594 398 662 455 704 526 712 607 685 684 620 746Z"
    fill="#fff"
    fill-opacity=".95"
  />
  <path
    d="M514 690 474 675 446 641 442 596 461 558 497 530 501 574 530 604 570 598 605 567 628 614 620 666 580 700Z"
    fill="#00b3b5"
  />
</svg>
